<svg xmlns="http://www.w3.org/2000/svg" xmlns:xlink="http://www.w3.org/1999/xlink" xmlns:svgjs="http://svgjs.dev/svgjs" version="1.1" width="300" height="100" viewBox="0 0 1000 249"><g transform="matrix(1,0,0,1,-0.6060606060606233,-0.05931156273956617)"><svg xmlns="http://www.w3.org/2000/svg" xmlns:xlink="http://www.w3.org/1999/xlink" viewBox="0 0 396 99" data-background-color="#00ffef" preserveAspectRatio="xMidYMid meet" height="249" width="1000"><g id="tight-bounds" transform="matrix(1,0,0,1,0.2400000000000091,0.0235817056675387)"><svg viewBox="0 0 395.52 98.9528365886649" height="98.9528365886649" width="395.52"><g><svg viewBox="0 0 517.9167266105208 129.57455808764942" height="98.9528365886649" width="395.52"><g transform="matrix(1,0,0,1,0,17.907916494023915)"><svg viewBox="0 0 395.52 93.75872509960159" height="93.75872509960159" width="395.52"><g><svg viewBox="0 0 395.52 93.75872509960159" height="93.75872509960159" width="395.52"><g><svg viewBox="0 0 395.52 93.75872509960159" height="93.75872509960159" width="395.52"><g transform="matrix(1,0,0,1,0,0)"><svg width="395.52" viewBox="0.98 -36.04 196.08 46.489999999999995" height="93.75872509960159" data-palette-color="#37514e"><path d="M29.44 0.59L20.41 0.59Q21.24 0.34 21.44-0.51 21.63-1.37 21.68-2.05L21.68-2.05Q19.48-1.37 17.24-1.03 14.99-0.68 12.74-0.68L12.74-0.68Q11.28-0.68 9.25-0.93 7.23-1.17 5.4-1.86 3.56-2.54 2.27-3.76 0.98-4.98 0.98-6.98L0.98-6.98Q0.98-8.69 2.22-9.91 3.47-11.13 5.42-11.94 7.37-12.74 9.81-13.18 12.26-13.62 14.6-13.87 16.94-14.11 18.99-14.16 21.04-14.21 22.22-14.26L22.22-14.26Q22.22-14.94 22.24-15.58 22.27-16.21 22.27-16.89L22.27-16.89Q22.27-18.12 21.83-19.02 21.39-19.92 20.63-20.51 19.87-21.09 18.85-21.36 17.82-21.63 16.7-21.63L16.7-21.63Q15.63-21.63 14.38-21.34 13.13-21.04 12.01-20.46 10.89-19.87 10.06-18.97 9.23-18.07 9.03-16.89L9.03-16.89 2.88-17.72Q3.76-19.97 5.32-21.53 6.88-23.1 8.86-24.07 10.84-25.05 13.09-25.51 15.33-25.98 17.58-25.98L17.58-25.98Q19.73-25.98 21.75-25.44 23.78-24.9 25.37-23.8 26.95-22.71 27.91-21 28.86-19.29 28.86-16.94L28.86-16.94Q28.86-14.45 28.78-11.99 28.71-9.52 28.71-7.03L28.71-7.03Q28.71-6.59 28.71-5.44 28.71-4.3 28.78-3.05 28.86-1.81 29-0.76 29.15 0.29 29.44 0.59L29.44 0.59ZM7.62-6.98L7.62-6.98Q7.62-6.25 8.4-5.86 9.18-5.47 10.23-5.25 11.28-5.03 12.3-4.98 13.33-4.93 13.77-4.93L13.77-4.93Q15.82-4.93 17.92-5.22 20.02-5.52 21.97-6.15L21.97-6.15Q22.02-7.03 22.05-7.91 22.07-8.79 22.07-9.62L22.07-9.62 20.8-9.67Q20.36-9.67 19.21-9.64 18.07-9.62 16.6-9.55 15.14-9.47 13.55-9.3 11.96-9.13 10.64-8.84 9.33-8.54 8.47-8.08 7.62-7.62 7.62-6.98ZM51.12-24.56L51.12-24.56Q53.76-24.56 56.32-23.85 58.88-23.14 60.94-21.73 62.99-20.31 64.26-18.12 65.52-15.92 65.52-12.99L65.52-12.99Q65.52-10.99 64.69-9.25 63.86-7.52 62.5-6.1 61.13-4.69 59.45-3.61 57.76-2.54 56.1-1.9L56.1-1.9Q52.63-0.59 48.97-0.59L48.97-0.59Q46.92-0.59 44.94-1.03 42.97-1.46 41.16-2.49L41.16-2.49Q41.21-1.95 41.26-1.25 41.31-0.54 41.55 0L41.55 0 32.96 0Q33.2-0.39 33.42-2.29 33.64-4.2 33.84-6.88 34.03-9.57 34.18-12.7 34.32-15.82 34.45-18.7 34.57-21.58 34.62-23.88 34.67-26.17 34.67-27.2L34.67-27.2Q34.67-27.73 34.67-29.08 34.67-30.42 34.57-31.88 34.47-33.35 34.27-34.57 34.08-35.79 33.74-36.04L33.74-36.04 43.02-35.99Q42.67-35.84 42.43-34.86 42.19-33.89 41.99-32.45 41.79-31.01 41.67-29.3 41.55-27.59 41.45-26.05 41.35-24.51 41.31-23.29 41.26-22.07 41.26-21.58L41.26-21.58Q43.41-23.05 45.94-23.8 48.48-24.56 51.12-24.56ZM48.92-5.47L48.92-5.47Q50.63-5.47 52.32-5.96 54-6.45 55.37-7.42 56.74-8.4 57.57-9.84 58.4-11.28 58.4-13.18L58.4-13.18Q58.4-14.94 57.64-16.24 56.88-17.53 55.66-18.38 54.44-19.24 52.9-19.63 51.36-20.02 49.8-20.02L49.8-20.02Q48.39-20.02 46.87-19.58 45.36-19.14 44.06-18.31 42.77-17.48 41.94-16.26 41.11-15.04 41.06-13.43L41.06-13.43 41.06-11.52Q41.06-9.96 41.77-8.81 42.48-7.67 43.63-6.93 44.77-6.2 46.16-5.83 47.56-5.47 48.92-5.47ZM82.81 0.73L82.81 0.73Q80.41 0.73 77.73 0.1 75.04-0.54 72.77-1.88 70.5-3.22 69.01-5.27 67.52-7.32 67.52-10.16L67.52-10.16Q67.52-13.62 68.89-16.36 70.26-19.09 72.55-20.97 74.85-22.85 77.88-23.85 80.9-24.85 84.22-24.85L84.22-24.85Q86.86-24.85 88.91-24 90.96-23.14 92.33-21.61 93.7-20.07 94.4-17.97 95.11-15.87 95.11-13.33L95.11-13.33Q95.11-10.89 94.38-8.64L94.38-8.64 74.02-8.64Q74.51-7.18 75.56-6.25 76.61-5.32 77.95-4.81 79.29-4.3 80.78-4.1 82.27-3.91 83.59-3.91L83.59-3.91Q84.42-3.91 85.81-4.03 87.2-4.15 88.67-4.42 90.13-4.69 91.43-5.08 92.72-5.47 93.35-6.05L93.35-6.05 95.75-1.86Q92.52-0.63 89.4 0.05 86.27 0.73 82.81 0.73ZM82.81-20.26L82.81-20.26Q81.34-20.26 79.9-19.68 78.46-19.09 77.29-18.14 76.12-17.19 75.24-15.89 74.36-14.6 73.97-13.23L73.97-13.23 87.93-13.23Q88.08-14.7 87.96-15.99 87.84-17.29 87.3-18.24 86.76-19.19 85.69-19.73 84.61-20.26 82.81-20.26ZM113.81 0.73L113.81 0.73Q111.42 0.73 108.73 0.1 106.05-0.54 103.78-1.88 101.51-3.22 100.02-5.27 98.53-7.32 98.53-10.16L98.53-10.16Q98.53-13.62 99.89-16.36 101.26-19.09 103.56-20.97 105.85-22.85 108.88-23.85 111.91-24.85 115.23-24.85L115.23-24.85Q117.86-24.85 119.91-24 121.97-23.14 123.33-21.61 124.7-20.07 125.41-17.97 126.12-15.87 126.12-13.33L126.12-13.33Q126.12-10.89 125.38-8.64L125.38-8.64 105.02-8.64Q105.51-7.18 106.56-6.25 107.61-5.32 108.95-4.81 110.3-4.3 111.78-4.1 113.27-3.91 114.59-3.91L114.59-3.91Q115.42-3.91 116.81-4.03 118.21-4.15 119.67-4.42 121.14-4.69 122.43-5.08 123.72-5.47 124.36-6.05L124.36-6.05 126.75-1.86Q123.53-0.63 120.4 0.05 117.28 0.73 113.81 0.73ZM113.81-20.26L113.81-20.26Q112.35-20.26 110.91-19.68 109.47-19.09 108.29-18.14 107.12-17.19 106.24-15.89 105.36-14.6 104.97-13.23L104.97-13.23 118.94-13.23Q119.08-14.7 118.96-15.99 118.84-17.29 118.3-18.24 117.77-19.19 116.69-19.73 115.62-20.26 113.81-20.26ZM151.8-24.02L160.15-24.02Q159.9-23.73 159.73-22 159.56-20.26 159.44-17.75 159.32-15.23 159.24-12.33 159.17-9.42 159.12-6.76 159.07-4.1 159.05-2.08 159.02-0.05 159.02 0.63L159.02 0.63Q159.02 5.03 155.12 7.57 151.21 10.11 144.03 10.35L144.03 10.35Q141.98 10.45 139.93 10.42 137.88 10.4 135.83 10.45L135.83 10.45 135.83 4.98Q136.56 5.32 137.64 5.52 138.71 5.71 139.88 5.83 141.05 5.96 142.15 5.98 143.25 6.01 144.03 6.01L144.03 6.01Q146.72 6.01 148.31 5.47 149.89 4.93 150.72 3.78 151.55 2.64 151.85 0.81 152.14-1.03 152.24-3.61L152.24-3.61Q150.23-2.05 147.74-1.22 145.25-0.39 142.76-0.39L142.76-0.39Q140.27-0.39 137.86-1.12 135.44-1.86 133.53-3.3 131.63-4.74 130.43-6.86 129.24-8.98 129.24-11.72L129.24-11.72Q129.24-14.4 130.73-16.65 132.22-18.9 134.49-20.46 136.76-22.02 139.49-22.9 142.23-23.78 144.67-23.78L144.67-23.78Q146.67-23.78 148.57-23.29 150.48-22.8 152.14-21.68L152.14-21.68Q152.09-22.07 152.07-22.85 152.04-23.63 151.8-24.02L151.8-24.02ZM143.94-4.79L143.94-4.79Q145.16-4.79 146.52-5.2 147.89-5.62 149.06-6.37 150.23-7.13 151.04-8.23 151.85-9.33 151.99-10.69L151.99-10.69Q152.09-11.28 152.09-11.94 152.09-12.6 152.09-13.23L152.09-13.23Q152.09-14.65 151.41-15.72 150.72-16.8 149.65-17.53 148.57-18.26 147.26-18.63 145.94-18.99 144.72-18.99L144.72-18.99Q143.06-18.99 141.42-18.53 139.78-18.07 138.47-17.14 137.15-16.21 136.32-14.79 135.49-13.38 135.49-11.52L135.49-11.52Q135.49-9.77 136.22-8.5 136.95-7.23 138.17-6.4 139.39-5.57 140.88-5.18 142.37-4.79 143.94-4.79ZM165.17-22.85L165.17-22.85 173.77-22.8Q173.52-22.75 173.4-22.39 173.28-22.02 173.18-21.83L173.18-21.83Q172.84-20.61 172.67-18.87 172.5-17.14 172.42-15.26 172.35-13.38 172.33-11.62 172.3-9.86 172.3-8.54L172.3-8.54Q172.3-8.11 172.3-6.76 172.3-5.42 172.38-3.91 172.45-2.39 172.59-1.15 172.74 0.1 173.03 0.39L173.03 0.39 164.39 0.39Q164.64 0.05 164.88-1.22 165.12-2.49 165.3-4.25 165.47-6.01 165.61-8.03 165.76-10.06 165.88-11.89 166-13.72 166.05-15.16 166.1-16.6 166.1-17.14L166.1-17.14Q166.1-17.43 166.1-18.31 166.1-19.19 166-20.14 165.91-21.09 165.71-21.9 165.51-22.71 165.17-22.85ZM169.42-34.67L169.42-34.67Q170.06-34.67 170.84-34.47 171.62-34.28 172.28-33.91 172.94-33.54 173.38-32.93 173.82-32.32 173.82-31.54L173.82-31.54Q173.82-30.76 173.38-30.18 172.94-29.59 172.28-29.22 171.62-28.86 170.84-28.66 170.06-28.47 169.42-28.47L169.42-28.47Q168.74-28.47 167.98-28.66 167.22-28.86 166.56-29.22 165.91-29.59 165.47-30.18 165.03-30.76 165.03-31.54L165.03-31.54Q165.03-32.32 165.47-32.93 165.91-33.54 166.56-33.91 167.22-34.28 167.98-34.47 168.74-34.67 169.42-34.67ZM189.78-17.63Q189.68-15.14 189.58-12.62 189.49-10.11 189.49-7.62L189.49-7.62Q189.49-6.79 189.83-6.2 190.17-5.62 190.73-5.25 191.29-4.88 192-4.74 192.71-4.59 193.44-4.59L193.44-4.59Q194.37-4.59 195.27-4.74 196.18-4.88 197.06-5.13L197.06-5.13 196.27 0.1Q193.44 0.1 190.95-0.07 188.46-0.24 186.61-1.12 184.75-2 183.68-3.93 182.6-5.86 182.6-9.38L182.6-9.38Q182.6-11.43 182.72-13.5 182.85-15.58 183.04-17.63L183.04-17.63 175.82-17.58 176.16-22.36Q177.91-22.22 179.72-22.19 181.53-22.17 183.33-22.17L183.33-22.17Q183.43-23.58 183.48-24.93 183.53-26.27 183.53-27.69L183.53-27.69Q183.53-27.98 183.53-28.86 183.53-29.74 183.43-30.69 183.33-31.64 183.14-32.42 182.94-33.2 182.6-33.35L182.6-33.35 191.59-33.2Q191.39-33.2 191.29-32.91 191.2-32.62 191.1-32.47L191.1-32.47Q190.81-31.54 190.63-30.22 190.46-28.91 190.34-27.47 190.22-26.03 190.15-24.68 190.07-23.34 190.02-22.31L190.02-22.31Q191.68-22.41 193.39-22.49 195.1-22.56 196.76-22.95L196.76-22.95 196.76-17.68 189.78-17.63Z" opacity="1" transform="matrix(1,0,0,1,0,0)" fill="#37514e" class="undefined-text-0" data-fill-palette-color="primary" id="text-0"/></svg></g></svg></g></svg></g></svg></g><g transform="matrix(1,0,0,1,417.65418478661354,0)"><svg viewBox="0 0 100.26254182390717 129.57455808764942" height="129.57455808764942" width="100.26254182390717"><g><svg xmlns="http://www.w3.org/2000/svg" xmlns:xlink="http://www.w3.org/1999/xlink" version="1.1" x="0" y="0" viewBox="12.983 1 75.68599999999999 97.813" enable-background="new 0 0 100 100" xml:space="preserve" height="129.57455808764942" width="100.26254182390717" class="icon-icon-0" data-fill-palette-color="accent" id="icon-0"><g fill="#374151" data-fill-palette-color="accent"><polygon fill-rule="evenodd" clip-rule="evenodd" points="12.983,10.59 30.001,98.813 24.129,39.764 53.15,37.872 53.096,27.989    64.549,1 53.622,18.977  " fill="#374151" data-fill-palette-color="accent"/><polygon fill-rule="evenodd" clip-rule="evenodd" points="59.389,54.548 64.549,1.007 55.809,40.723 36.197,41.768 37.767,62.23    30.001,98.813 42.058,58.914  " fill="#374151" data-fill-palette-color="accent"/><polygon fill-rule="evenodd" clip-rule="evenodd" points="62.8,67.182 63.349,56.729 47.37,60.484 47.338,72.281 30.001,98.813    51.681,71.197  " fill="#374151" data-fill-palette-color="accent"/><polygon fill-rule="evenodd" clip-rule="evenodd" points="65.711,62.394 80.552,57.663 82.061,45.131 66.162,47.226  " fill="#374151" data-fill-palette-color="accent"/><polygon fill-rule="evenodd" clip-rule="evenodd" points="72.07,44.502 83.058,43.085 84.639,32.807 76.56,32.434 64.549,1    72.979,31.967  " fill="#374151" data-fill-palette-color="accent"/><polygon fill-rule="evenodd" clip-rule="evenodd" points="87.413,31.294 88.669,21.788 79.125,19.094 64.549,1 79.032,23.437    78.61,30.437  " fill="#374151" data-fill-palette-color="accent"/></g></svg></g></svg></g></svg></g><defs/></svg><rect width="395.52" height="98.9528365886649" fill="none" stroke="none" visibility="hidden"/></g></svg></g></svg>